<?xml version="1.0" encoding="utf-8"?>
<!-- Generator: Adobe Illustrator 25.2.1, SVG Export Plug-In . SVG Version: 6.00 Build 0)  -->
<svg version="1.1" id="Layer_1" xmlns="http://www.w3.org/2000/svg" xmlns:xlink="http://www.w3.org/1999/xlink" x="0px" y="0px"
	 viewBox="0 0 105.6 22" style="enable-background:new 0 0 105.6 22;" xml:space="preserve">
<style type="text/css">
	.st0{fill:#FFFFFF;}
</style>
<g>
	<path class="st0" d="M0.4,0.3h3.2l1.5,16.4h0.1L6.8,0.3h3.7L12,16.7h0.1l1.5-16.4h2.9l-2.2,21.4h-4.2L8.6,7.3H8.5L7,21.7H2.6
		L0.4,0.3z"/>
	<path class="st0" d="M20.3,0.3h4.5l3.5,21.4H25l-0.6-4.2v0.1h-3.8L20,21.7h-3.1L20.3,0.3z M24,14.6L22.5,4h-0.1L21,14.6H24z"/>
	<path class="st0" d="M31.2,3.4h-3.5V0.3h10.4v3.1h-3.5v18.3h-3.4V3.4z"/>
	<path class="st0" d="M40.6,20.6c-0.8-0.9-1.3-2.2-1.3-3.9V5.2c0-1.7,0.4-3,1.3-3.9C41.5,0.5,42.7,0,44.3,0c1.6,0,2.8,0.5,3.7,1.4
		c0.8,0.9,1.3,2.2,1.3,3.9v2.3h-3.2V5c0-1.3-0.6-2-1.7-2c-1.1,0-1.7,0.7-1.7,2V17c0,1.3,0.6,2,1.7,2c1.1,0,1.7-0.7,1.7-2v-3.3h3.2v3
		c0,1.7-0.4,3-1.3,3.9c-0.8,0.9-2.1,1.4-3.7,1.4C42.7,22,41.5,21.5,40.6,20.6z"/>
	<path class="st0" d="M51.3,0.3h3.4V9h3.6V0.3h3.4v21.4h-3.4v-9.6h-3.6v9.6h-3.4V0.3z"/>
	<path class="st0" d="M71.6,3.4h-3.5V0.3h10.4v3.1h-3.5v18.3h-3.4V3.4z"/>
	<path class="st0" d="M79.3,0.3h3.4l2.2,16.6H85l2.2-16.6h3.1L87,21.7h-4.5L79.3,0.3z"/>
	<path class="st0" d="M95.5,12.2h-4.1V9.8h4.1V5.7h2.4v4.1h4.1v2.4h-4.1v4.2h-2.4V12.2z"/>
</g>
</svg>
